<?xml version="1.0" standalone="no"?>
<!DOCTYPE svg PUBLIC "-//W3C//DTD SVG 20010904//EN"
 "http://www.w3.org/TR/2001/REC-SVG-20010904/DTD/svg10.dtd">
<svg version="1.0" xmlns="http://www.w3.org/2000/svg"
 width="626.000000pt" height="598.000000pt" viewBox="0 0 626.000000 598.000000"
 preserveAspectRatio="xMidYMid meet">

<g transform="translate(0.000000,598.000000) scale(0.100000,-0.100000)"
fill="#000000" stroke="none">
<path d="M3043 4579 c-164 -19 -319 -96 -434 -216 -126 -132 -184 -265 -202
-467 -20 -228 15 -701 72 -964 l18 -83 -33 -15 c-45 -22 -109 -85 -133 -131
-21 -42 -127 -440 -119 -448 3 -3 416 -4 920 -3 l914 3 -52 200 c-29 110 -64
224 -80 253 -29 58 -89 112 -148 137 -28 12 -259 54 -299 55 -4 0 18 25 50 55
36 34 65 53 76 51 11 -3 17 2 17 15 0 10 21 47 46 81 57 76 137 241 158 323
41 164 47 487 11 620 -64 235 -239 423 -466 500 -58 20 -217 49 -239 44 -3 -1
-38 -5 -77 -10z m405 -504 c64 -164 118 -331 132 -410 7 -39 11 -119 9 -181
-4 -99 -7 -116 -36 -175 -31 -63 -111 -150 -173 -190 l-25 -16 45 -8 c25 -4
55 -11 67 -16 l21 -8 -28 -76 c-16 -43 -32 -80 -35 -83 -3 -4 -22 -5 -41 -3
-28 2 -33 0 -28 -14 9 -23 -38 -69 -99 -95 -107 -47 -232 -33 -319 33 -32 25
-42 39 -40 56 3 22 2 22 -55 16 -32 -3 -75 -8 -95 -11 -21 -3 -38 -2 -38 4 0
12 51 82 76 104 10 9 45 32 77 51 l57 35 -49 31 c-97 63 -176 167 -204 271
-17 62 -30 190 -19 190 4 0 29 -39 56 -87 45 -78 50 -85 56 -62 4 13 4 49 -1
79 -52 367 147 610 547 669 98 15 93 18 142 -104z m-838 -1177 c0 -16 -4 -28
-10 -28 -5 0 -10 19 -10 43 0 31 3 38 10 27 5 -8 10 -27 10 -42z"/>
</g>
</svg>
